<?xml version="1.0" encoding="UTF-8" standalone="no"?>
<!DOCTYPE svg PUBLIC "-//W3C//DTD SVG 1.1//EN"
 "http://www.w3.org/Graphics/SVG/1.1/DTD/svg11.dtd">
<!-- Generated by graphviz version 2.43.0 (0)
 -->
<!-- Title: %3 Pages: 1 -->
<svg width="1074pt" height="548pt"
 viewBox="0.00 0.00 1074.19 548.00" xmlns="http://www.w3.org/2000/svg" xmlns:xlink="http://www.w3.org/1999/xlink">
<g id="graph0" class="graph" transform="scale(1 1) rotate(0) translate(4 544)">
<title>%3</title>
<polygon fill="white" stroke="transparent" points="-4,4 -4,-544 1070.19,-544 1070.19,4 -4,4"/>
<!-- [root] aws_autoscaling_group.web -->
<g id="node1" class="node">
<title>[root] aws_autoscaling_group.web</title>
<polygon fill="none" stroke="black" points="601,-396 431,-396 431,-360 601,-360 601,-396"/>
<text text-anchor="middle" x="516" y="-374.3" font-family="Times,serif" font-size="14.00">aws_autoscaling_group.web</text>
</g>
<!-- [root] aws_elb.web -->
<g id="node2" class="node">
<title>[root] aws_elb.web</title>
<polygon fill="none" stroke="black" points="372.5,-324 285.5,-324 285.5,-288 372.5,-288 372.5,-324"/>
<text text-anchor="middle" x="329" y="-302.3" font-family="Times,serif" font-size="14.00">aws_elb.web</text>
</g>
<!-- [root] aws_autoscaling_group.web&#45;&gt;[root] aws_elb.web -->
<g id="edge1" class="edge">
<title>[root] aws_autoscaling_group.web&#45;&gt;[root] aws_elb.web</title>
<path fill="none" stroke="black" d="M470.25,-359.88C443.66,-349.92 410.01,-337.32 382.23,-326.92"/>
<polygon fill="black" stroke="black" points="383.26,-323.57 372.67,-323.35 380.8,-330.13 383.26,-323.57"/>
</g>
<!-- [root] aws_launch_configuration.web -->
<g id="node4" class="node">
<title>[root] aws_launch_configuration.web</title>
<polygon fill="none" stroke="black" points="652,-324 466,-324 466,-288 652,-288 652,-324"/>
<text text-anchor="middle" x="559" y="-302.3" font-family="Times,serif" font-size="14.00">aws_launch_configuration.web</text>
</g>
<!-- [root] aws_autoscaling_group.web&#45;&gt;[root] aws_launch_configuration.web -->
<g id="edge2" class="edge">
<title>[root] aws_autoscaling_group.web&#45;&gt;[root] aws_launch_configuration.web</title>
<path fill="none" stroke="black" d="M526.63,-359.7C531.63,-351.56 537.69,-341.69 543.21,-332.7"/>
<polygon fill="black" stroke="black" points="546.24,-334.46 548.49,-324.1 540.28,-330.79 546.24,-334.46"/>
</g>
<!-- [root] aws_security_group.allow_ssh_http_anywhere -->
<g id="node5" class="node">
<title>[root] aws_security_group.allow_ssh_http_anywhere</title>
<polygon fill="none" stroke="black" points="464,-252 194,-252 194,-216 464,-216 464,-252"/>
<text text-anchor="middle" x="329" y="-230.3" font-family="Times,serif" font-size="14.00">aws_security_group.allow_ssh_http_anywhere</text>
</g>
<!-- [root] aws_elb.web&#45;&gt;[root] aws_security_group.allow_ssh_http_anywhere -->
<g id="edge3" class="edge">
<title>[root] aws_elb.web&#45;&gt;[root] aws_security_group.allow_ssh_http_anywhere</title>
<path fill="none" stroke="black" d="M329,-287.7C329,-279.98 329,-270.71 329,-262.11"/>
<polygon fill="black" stroke="black" points="332.5,-262.1 329,-252.1 325.5,-262.1 332.5,-262.1"/>
</g>
<!-- [root] data.aws_subnet_ids.selected -->
<g id="node7" class="node">
<title>[root] data.aws_subnet_ids.selected</title>
<polygon fill="none" stroke="black" points="176,-252 0,-252 0,-216 176,-216 176,-252"/>
<text text-anchor="middle" x="88" y="-230.3" font-family="Times,serif" font-size="14.00">data.aws_subnet_ids.selected</text>
</g>
<!-- [root] aws_elb.web&#45;&gt;[root] data.aws_subnet_ids.selected -->
<g id="edge4" class="edge">
<title>[root] aws_elb.web&#45;&gt;[root] data.aws_subnet_ids.selected</title>
<path fill="none" stroke="black" d="M285.36,-292.32C249.44,-281.89 197.89,-266.92 156.49,-254.89"/>
<polygon fill="black" stroke="black" points="157.32,-251.49 146.74,-252.06 155.36,-258.21 157.32,-251.49"/>
</g>
<!-- [root] aws_key_pair.keypair -->
<g id="node3" class="node">
<title>[root] aws_key_pair.keypair</title>
<polygon fill="none" stroke="black" points="618,-252 482,-252 482,-216 618,-216 618,-252"/>
<text text-anchor="middle" x="550" y="-230.3" font-family="Times,serif" font-size="14.00">aws_key_pair.keypair</text>
</g>
<!-- [root] provider.aws -->
<g id="node11" class="node">
<title>[root] provider.aws</title>
<polygon fill="none" stroke="black" points="565,-108 485.07,-90 565,-72 644.93,-90 565,-108"/>
<text text-anchor="middle" x="565" y="-86.3" font-family="Times,serif" font-size="14.00">provider.aws</text>
</g>
<!-- [root] aws_key_pair.keypair&#45;&gt;[root] provider.aws -->
<g id="edge5" class="edge">
<title>[root] aws_key_pair.keypair&#45;&gt;[root] provider.aws</title>
<path fill="none" stroke="black" d="M551.81,-215.87C554.38,-191.54 559.11,-146.73 562.16,-117.93"/>
<polygon fill="black" stroke="black" points="565.66,-118.06 563.23,-107.75 558.7,-117.33 565.66,-118.06"/>
</g>
<!-- [root] var.project_name -->
<g id="node14" class="node">
<title>[root] var.project_name</title>
<polygon fill="none" stroke="black" points="531,-180 425,-180 425,-144 537,-144 537,-174 531,-180"/>
<polyline fill="none" stroke="black" points="531,-180 531,-174 "/>
<polyline fill="none" stroke="black" points="537,-174 531,-174 "/>
<text text-anchor="middle" x="481" y="-158.3" font-family="Times,serif" font-size="14.00">var.project_name</text>
</g>
<!-- [root] aws_key_pair.keypair&#45;&gt;[root] var.project_name -->
<g id="edge6" class="edge">
<title>[root] aws_key_pair.keypair&#45;&gt;[root] var.project_name</title>
<path fill="none" stroke="black" d="M532.94,-215.7C524.5,-207.14 514.18,-196.66 504.96,-187.3"/>
<polygon fill="black" stroke="black" points="507.37,-184.77 497.86,-180.1 502.39,-189.68 507.37,-184.77"/>
</g>
<!-- [root] aws_launch_configuration.web&#45;&gt;[root] aws_key_pair.keypair -->
<g id="edge7" class="edge">
<title>[root] aws_launch_configuration.web&#45;&gt;[root] aws_key_pair.keypair</title>
<path fill="none" stroke="black" d="M556.78,-287.7C555.78,-279.98 554.59,-270.71 553.49,-262.11"/>
<polygon fill="black" stroke="black" points="556.95,-261.58 552.2,-252.1 550,-262.47 556.95,-261.58"/>
</g>
<!-- [root] aws_launch_configuration.web&#45;&gt;[root] aws_security_group.allow_ssh_http_anywhere -->
<g id="edge8" class="edge">
<title>[root] aws_launch_configuration.web&#45;&gt;[root] aws_security_group.allow_ssh_http_anywhere</title>
<path fill="none" stroke="black" d="M503.03,-287.97C470.47,-278.06 429.26,-265.51 395.11,-255.12"/>
<polygon fill="black" stroke="black" points="395.81,-251.67 385.22,-252.11 393.77,-258.37 395.81,-251.67"/>
</g>
<!-- [root] data.aws_ami.ubuntu -->
<g id="node6" class="node">
<title>[root] data.aws_ami.ubuntu</title>
<polygon fill="none" stroke="black" points="743.5,-180 610.5,-180 610.5,-144 743.5,-144 743.5,-180"/>
<text text-anchor="middle" x="677" y="-158.3" font-family="Times,serif" font-size="14.00">data.aws_ami.ubuntu</text>
</g>
<!-- [root] aws_launch_configuration.web&#45;&gt;[root] data.aws_ami.ubuntu -->
<g id="edge9" class="edge">
<title>[root] aws_launch_configuration.web&#45;&gt;[root] data.aws_ami.ubuntu</title>
<path fill="none" stroke="black" d="M652.2,-291.16C696.88,-282.43 743.59,-269.47 757,-252 766.74,-239.31 764.57,-230.1 757,-216 750.21,-203.36 738.94,-193.23 726.97,-185.35"/>
<polygon fill="black" stroke="black" points="728.55,-182.21 718.18,-180 724.91,-188.19 728.55,-182.21"/>
</g>
<!-- [root] data.template_file.init -->
<g id="node9" class="node">
<title>[root] data.template_file.init</title>
<polygon fill="none" stroke="black" points="941.5,-252 804.5,-252 804.5,-216 941.5,-216 941.5,-252"/>
<text text-anchor="middle" x="873" y="-230.3" font-family="Times,serif" font-size="14.00">data.template_file.init</text>
</g>
<!-- [root] aws_launch_configuration.web&#45;&gt;[root] data.template_file.init -->
<g id="edge10" class="edge">
<title>[root] aws_launch_configuration.web&#45;&gt;[root] data.template_file.init</title>
<path fill="none" stroke="black" d="M635.41,-287.97C683.64,-277.21 745.8,-263.36 794.44,-252.51"/>
<polygon fill="black" stroke="black" points="795.29,-255.91 804.29,-250.32 793.77,-249.08 795.29,-255.91"/>
</g>
<!-- [root] var.instance_type -->
<g id="node13" class="node">
<title>[root] var.instance_type</title>
<polygon fill="none" stroke="black" points="742,-252 636,-252 636,-216 748,-216 748,-246 742,-252"/>
<polyline fill="none" stroke="black" points="742,-252 742,-246 "/>
<polyline fill="none" stroke="black" points="748,-246 742,-246 "/>
<text text-anchor="middle" x="692" y="-230.3" font-family="Times,serif" font-size="14.00">var.instance_type</text>
</g>
<!-- [root] aws_launch_configuration.web&#45;&gt;[root] var.instance_type -->
<g id="edge11" class="edge">
<title>[root] aws_launch_configuration.web&#45;&gt;[root] var.instance_type</title>
<path fill="none" stroke="black" d="M591.54,-287.88C609.25,-278.55 631.35,-266.92 650.32,-256.94"/>
<polygon fill="black" stroke="black" points="652.12,-259.94 659.34,-252.19 648.86,-253.75 652.12,-259.94"/>
</g>
<!-- [root] data.aws_vpc.selected -->
<g id="node8" class="node">
<title>[root] data.aws_vpc.selected</title>
<polygon fill="none" stroke="black" points="397.5,-180 260.5,-180 260.5,-144 397.5,-144 397.5,-180"/>
<text text-anchor="middle" x="329" y="-158.3" font-family="Times,serif" font-size="14.00">data.aws_vpc.selected</text>
</g>
<!-- [root] aws_security_group.allow_ssh_http_anywhere&#45;&gt;[root] data.aws_vpc.selected -->
<g id="edge12" class="edge">
<title>[root] aws_security_group.allow_ssh_http_anywhere&#45;&gt;[root] data.aws_vpc.selected</title>
<path fill="none" stroke="black" d="M329,-215.7C329,-207.98 329,-198.71 329,-190.11"/>
<polygon fill="black" stroke="black" points="332.5,-190.1 329,-180.1 325.5,-190.1 332.5,-190.1"/>
</g>
<!-- [root] aws_security_group.allow_ssh_http_anywhere&#45;&gt;[root] var.project_name -->
<g id="edge13" class="edge">
<title>[root] aws_security_group.allow_ssh_http_anywhere&#45;&gt;[root] var.project_name</title>
<path fill="none" stroke="black" d="M366.18,-215.88C386.87,-206.35 412.8,-194.41 434.78,-184.28"/>
<polygon fill="black" stroke="black" points="436.32,-187.43 443.94,-180.07 433.39,-181.07 436.32,-187.43"/>
</g>
<!-- [root] data.aws_ami.ubuntu&#45;&gt;[root] provider.aws -->
<g id="edge14" class="edge">
<title>[root] data.aws_ami.ubuntu&#45;&gt;[root] provider.aws</title>
<path fill="none" stroke="black" d="M649.6,-143.88C632.62,-133.26 610.83,-119.64 593.62,-108.89"/>
<polygon fill="black" stroke="black" points="595.43,-105.89 585.09,-103.56 591.72,-111.82 595.43,-105.89"/>
</g>
<!-- [root] data.aws_subnet_ids.selected&#45;&gt;[root] data.aws_vpc.selected -->
<g id="edge15" class="edge">
<title>[root] data.aws_subnet_ids.selected&#45;&gt;[root] data.aws_vpc.selected</title>
<path fill="none" stroke="black" d="M146.65,-215.97C180.91,-206.01 224.32,-193.41 260.19,-182.99"/>
<polygon fill="black" stroke="black" points="261.46,-186.26 270.09,-180.11 259.51,-179.54 261.46,-186.26"/>
</g>
<!-- [root] data.aws_vpc.selected&#45;&gt;[root] provider.aws -->
<g id="edge16" class="edge">
<title>[root] data.aws_vpc.selected&#45;&gt;[root] provider.aws</title>
<path fill="none" stroke="black" d="M386.43,-143.97C428.39,-131.52 484.36,-114.92 522.38,-103.64"/>
<polygon fill="black" stroke="black" points="523.53,-106.95 532.12,-100.75 521.54,-100.24 523.53,-106.95"/>
</g>
<!-- [root] provider.template -->
<g id="node12" class="node">
<title>[root] provider.template</title>
<polygon fill="none" stroke="black" points="873,-180 769.27,-162 873,-144 976.73,-162 873,-180"/>
<text text-anchor="middle" x="873" y="-158.3" font-family="Times,serif" font-size="14.00">provider.template</text>
</g>
<!-- [root] data.template_file.init&#45;&gt;[root] provider.template -->
<g id="edge17" class="edge">
<title>[root] data.template_file.init&#45;&gt;[root] provider.template</title>
<path fill="none" stroke="black" d="M873,-215.7C873,-207.98 873,-198.71 873,-190.11"/>
<polygon fill="black" stroke="black" points="876.5,-190.1 873,-180.1 869.5,-190.1 876.5,-190.1"/>
</g>
<!-- [root] data.template_file.init&#45;&gt;[root] var.project_name -->
<g id="edge18" class="edge">
<title>[root] data.template_file.init&#45;&gt;[root] var.project_name</title>
<path fill="none" stroke="black" d="M804.27,-220.73C731.96,-207.81 618.94,-187.63 547.49,-174.87"/>
<polygon fill="black" stroke="black" points="547.72,-171.36 537.26,-173.05 546.49,-178.25 547.72,-171.36"/>
</g>
<!-- [root] output.template_redered -->
<g id="node10" class="node">
<title>[root] output.template_redered</title>
<polygon fill="none" stroke="black" points="864.5,-324 721.5,-324 721.5,-288 870.5,-288 870.5,-318 864.5,-324"/>
<polyline fill="none" stroke="black" points="864.5,-324 864.5,-318 "/>
<polyline fill="none" stroke="black" points="870.5,-318 864.5,-318 "/>
<text text-anchor="middle" x="796" y="-302.3" font-family="Times,serif" font-size="14.00">output.template_redered</text>
</g>
<!-- [root] output.template_redered&#45;&gt;[root] data.template_file.init -->
<g id="edge21" class="edge">
<title>[root] output.template_redered&#45;&gt;[root] data.template_file.init</title>
<path fill="none" stroke="black" d="M815.03,-287.7C824.54,-279.05 836.21,-268.45 846.57,-259.03"/>
<polygon fill="black" stroke="black" points="849.14,-261.42 854.19,-252.1 844.43,-256.24 849.14,-261.42"/>
</g>
<!-- [root] var.region -->
<g id="node15" class="node">
<title>[root] var.region</title>
<polygon fill="none" stroke="black" points="595,-36 529,-36 529,0 601,0 601,-30 595,-36"/>
<polyline fill="none" stroke="black" points="595,-36 595,-30 "/>
<polyline fill="none" stroke="black" points="601,-30 595,-30 "/>
<text text-anchor="middle" x="565" y="-14.3" font-family="Times,serif" font-size="14.00">var.region</text>
</g>
<!-- [root] provider.aws&#45;&gt;[root] var.region -->
<g id="edge23" class="edge">
<title>[root] provider.aws&#45;&gt;[root] var.region</title>
<path fill="none" stroke="black" d="M565,-71.7C565,-63.98 565,-54.71 565,-46.11"/>
<polygon fill="black" stroke="black" points="568.5,-46.1 565,-36.1 561.5,-46.1 568.5,-46.1"/>
</g>
<!-- [root] meta.count&#45;boundary (EachMode fixup) -->
<g id="node16" class="node">
<title>[root] meta.count&#45;boundary (EachMode fixup)</title>
<ellipse fill="none" stroke="black" cx="753" cy="-450" rx="176.57" ry="18"/>
<text text-anchor="middle" x="753" y="-446.3" font-family="Times,serif" font-size="14.00">[root] meta.count&#45;boundary (EachMode fixup)</text>
</g>
<!-- [root] meta.count&#45;boundary (EachMode fixup)&#45;&gt;[root] aws_autoscaling_group.web -->
<g id="edge19" class="edge">
<title>[root] meta.count&#45;boundary (EachMode fixup)&#45;&gt;[root] aws_autoscaling_group.web</title>
<path fill="none" stroke="black" d="M698.33,-432.85C664.22,-422.78 620.05,-409.73 583.72,-399"/>
<polygon fill="black" stroke="black" points="584.28,-395.52 573.7,-396.04 582.3,-402.23 584.28,-395.52"/>
</g>
<!-- [root] meta.count&#45;boundary (EachMode fixup)&#45;&gt;[root] output.template_redered -->
<g id="edge20" class="edge">
<title>[root] meta.count&#45;boundary (EachMode fixup)&#45;&gt;[root] output.template_redered</title>
<path fill="none" stroke="black" d="M758.19,-431.87C765.55,-407.56 779.1,-362.82 787.82,-334.01"/>
<polygon fill="black" stroke="black" points="791.25,-334.77 790.79,-324.19 784.55,-332.75 791.25,-334.77"/>
</g>
<!-- [root] provider.aws (close) -->
<g id="node17" class="node">
<title>[root] provider.aws (close)</title>
<ellipse fill="none" stroke="black" cx="453" cy="-450" rx="105.08" ry="18"/>
<text text-anchor="middle" x="453" y="-446.3" font-family="Times,serif" font-size="14.00">[root] provider.aws (close)</text>
</g>
<!-- [root] provider.aws (close)&#45;&gt;[root] aws_autoscaling_group.web -->
<g id="edge22" class="edge">
<title>[root] provider.aws (close)&#45;&gt;[root] aws_autoscaling_group.web</title>
<path fill="none" stroke="black" d="M468.25,-432.05C475.88,-423.58 485.25,-413.17 493.67,-403.82"/>
<polygon fill="black" stroke="black" points="496.36,-406.05 500.45,-396.28 491.16,-401.37 496.36,-406.05"/>
</g>
<!-- [root] provider.template (close) -->
<g id="node18" class="node">
<title>[root] provider.template (close)</title>
<ellipse fill="none" stroke="black" cx="944" cy="-378" rx="122.38" ry="18"/>
<text text-anchor="middle" x="944" y="-374.3" font-family="Times,serif" font-size="14.00">[root] provider.template (close)</text>
</g>
<!-- [root] provider.template (close)&#45;&gt;[root] data.template_file.init -->
<g id="edge24" class="edge">
<title>[root] provider.template (close)&#45;&gt;[root] data.template_file.init</title>
<path fill="none" stroke="black" d="M935.44,-359.87C923.18,-335.35 900.52,-290.03 886.13,-261.26"/>
<polygon fill="black" stroke="black" points="889.2,-259.57 881.59,-252.19 882.94,-262.7 889.2,-259.57"/>
</g>
<!-- [root] root -->
<g id="node19" class="node">
<title>[root] root</title>
<ellipse fill="none" stroke="black" cx="753" cy="-522" rx="47.39" ry="18"/>
<text text-anchor="middle" x="753" y="-518.3" font-family="Times,serif" font-size="14.00">[root] root</text>
</g>
<!-- [root] root&#45;&gt;[root] meta.count&#45;boundary (EachMode fixup) -->
<g id="edge25" class="edge">
<title>[root] root&#45;&gt;[root] meta.count&#45;boundary (EachMode fixup)</title>
<path fill="none" stroke="black" d="M753,-503.7C753,-495.98 753,-486.71 753,-478.11"/>
<polygon fill="black" stroke="black" points="756.5,-478.1 753,-468.1 749.5,-478.1 756.5,-478.1"/>
</g>
<!-- [root] root&#45;&gt;[root] provider.aws (close) -->
<g id="edge26" class="edge">
<title>[root] root&#45;&gt;[root] provider.aws (close)</title>
<path fill="none" stroke="black" d="M713.78,-511.85C665.36,-500.55 582.14,-481.13 522.74,-467.27"/>
<polygon fill="black" stroke="black" points="523.21,-463.79 512.68,-464.92 521.62,-470.61 523.21,-463.79"/>
</g>
<!-- [root] root&#45;&gt;[root] provider.template (close) -->
<g id="edge27" class="edge">
<title>[root] root&#45;&gt;[root] provider.template (close)</title>
<path fill="none" stroke="black" d="M796.27,-514.55C845.45,-506.25 921.23,-490.22 939,-468 952.7,-450.87 952.76,-425.42 950.09,-406.12"/>
<polygon fill="black" stroke="black" points="953.52,-405.4 948.39,-396.12 946.61,-406.57 953.52,-405.4"/>
</g>
</g>
</svg>
